<svg width="116" height="152" viewBox="0 0 116 152" fill="none" xmlns="http://www.w3.org/2000/svg">
<path d="M57.3647 36.3719C46.9149 24.7248 37.5169 14.238 33.473 10.2155C20.305 -2.88273 -6.0271 10.2155 17.2962 40.9047C25.0134 50.4011 29.7414 56.7676 33.895 62.0698M57.3647 36.3719C65.509 45.4494 74.2923 55.2318 81.6776 63.208M57.3647 36.3719C67.3717 25.5002 76.9422 15.2475 81.9993 10.2156C95.5393 -3.25702 122.247 10.2155 98.5487 40.9047C94.3769 46.3072 88.8386 54.5051 81.6776 63.208M57.3647 36.3719C49.0668 45.3868 40.4687 54.8274 33.895 62.0698M81.6776 63.208C85.8704 67.7362 89.6126 71.6823 92.5316 74.5868C113.595 95.5455 97.0434 117.626 81.9996 117.626C66.9558 117.626 49.2699 97.0425 71.4661 74.5868C75.1867 70.8228 78.5836 66.9683 81.6776 63.208ZM33.895 62.0698C27.6285 68.9737 23.2015 73.8802 22.6276 74.5166C22.5668 74.584 22.5303 74.6217 22.4673 74.6871C2.29657 95.617 17.2775 118 33.8491 118C50.4471 118 66.5736 96.6682 44.7586 74.5868C40.5579 70.3348 37.4351 66.5888 33.895 62.0698Z" stroke="#E81147" stroke-width="8"/>
<path d="M1.32812 146L1.28125 145.109L2.71094 144.781C2.74219 144.703 2.75781 144.523 2.75781 144.242C2.77344 143.961 2.78125 143.578 2.78125 143.094C2.79688 142.609 2.80469 142.023 2.80469 141.336V136.93C2.80469 136.227 2.79688 135.633 2.78125 135.148C2.78125 134.648 2.77344 134.258 2.75781 133.977C2.75781 133.695 2.74219 133.523 2.71094 133.461L1.28125 133.133L1.32812 132.242H6.32031L6.36719 133.133L4.9375 133.461C4.90625 133.508 4.875 133.664 4.84375 133.93C4.82812 134.18 4.8125 134.555 4.79688 135.055C4.79688 135.539 4.79688 136.164 4.79688 136.93V141.336C4.79688 142.086 4.79688 142.703 4.79688 143.188C4.8125 143.672 4.82812 144.047 4.84375 144.312C4.875 144.562 4.90625 144.719 4.9375 144.781L6.36719 145.109L6.32031 146H1.32812ZM8.17188 146L8.125 145.156L9.57812 144.805C9.59375 144.695 9.60156 144.547 9.60156 144.359C9.61719 144.172 9.63281 143.914 9.64844 143.586C9.66406 143.258 9.67188 142.828 9.67188 142.297L9.69531 140.492C9.69531 139.977 9.67188 139.469 9.625 138.969C9.59375 138.453 9.55469 138.047 9.50781 137.75L8.00781 137.422V136.648L11.1484 135.781L11.5469 136.156L11.4297 137.398L11.5 137.422C12.0469 136.828 12.5859 136.398 13.1172 136.133C13.6484 135.867 14.2266 135.734 14.8516 135.734C15.4297 135.734 15.9688 135.883 16.4688 136.18C16.9844 136.461 17.3984 136.898 17.7109 137.492C18.0391 138.086 18.2031 138.844 18.2031 139.766V142.367C18.2031 142.93 18.2109 143.438 18.2266 143.891C18.2578 144.344 18.2969 144.648 18.3438 144.805L19.7969 145.156L19.7266 146H15.0156L14.9688 145.156L16.3281 144.805C16.3438 144.68 16.3594 144.523 16.375 144.336C16.3906 144.148 16.3984 143.914 16.3984 143.633C16.4141 143.336 16.4219 142.969 16.4219 142.531V140C16.4219 139.297 16.2969 138.742 16.0469 138.336C15.8125 137.914 15.5156 137.617 15.1562 137.445C14.7969 137.258 14.4297 137.164 14.0547 137.164C13.5391 137.164 13.0547 137.297 12.6016 137.562C12.1641 137.812 11.7891 138.164 11.4766 138.617V142.133C11.4766 142.852 11.4844 143.438 11.5 143.891C11.5312 144.328 11.5625 144.633 11.5938 144.805L13.0469 145.156L12.9766 146H8.17188ZM21.1094 146L21.0625 145.156L22.5156 144.805C22.5312 144.633 22.5391 144.414 22.5391 144.148C22.5547 143.883 22.5625 143.523 22.5625 143.07C22.5625 142.617 22.5625 142.039 22.5625 141.336V135.078C22.5625 133.875 22.8047 132.875 23.2891 132.078C23.7891 131.266 24.4453 130.656 25.2578 130.25C26.0859 129.844 26.9844 129.641 27.9531 129.641C28.9688 129.641 29.7812 129.844 30.3906 130.25C31 130.641 31.3047 131.094 31.3047 131.609C31.3047 131.906 31.2188 132.141 31.0469 132.312C30.875 132.484 30.6328 132.57 30.3203 132.57C30.0703 132.57 29.8359 132.523 29.6172 132.43C29.4141 132.32 29.1719 132.117 28.8906 131.82L27.3438 130.273L28.6562 130.672C27.9219 130.531 27.2266 130.594 26.5703 130.859C25.9141 131.109 25.3828 131.547 24.9766 132.172C24.5703 132.797 24.3672 133.617 24.3672 134.633V135.969V141.172C24.3672 141.656 24.3672 142.117 24.3672 142.555C24.3828 142.992 24.3984 143.398 24.4141 143.773C24.4297 144.133 24.4453 144.477 24.4609 144.805L26.0312 145.156L25.9609 146H21.1094ZM27.4844 146L27.4375 145.133L29.0078 144.805C29.0234 144.664 29.0391 144.5 29.0547 144.312C29.0703 144.109 29.0781 143.852 29.0781 143.539C29.0938 143.227 29.1016 142.812 29.1016 142.297V140.234C29.1016 139.406 29.0859 138.758 29.0547 138.289C29.0234 137.805 28.9922 137.422 28.9609 137.141H20.875V136.367L22.5625 135.945L23.7812 135.969H29.1484C29.4453 135.969 29.75 135.961 30.0625 135.945C30.3906 135.93 30.7031 135.914 31 135.898C30.9844 136.398 30.9688 136.891 30.9531 137.375C30.9375 137.859 30.9297 138.461 30.9297 139.18V142.133C30.9297 142.602 30.9297 143.016 30.9297 143.375C30.9453 143.734 30.9609 144.031 30.9766 144.266C31.0078 144.5 31.0312 144.68 31.0469 144.805L32.6172 145.133L32.5469 146H27.4844ZM33.8828 146L33.8359 145.156L35.2891 144.805C35.3047 144.695 35.3125 144.547 35.3125 144.359C35.3281 144.172 35.3438 143.914 35.3594 143.586C35.375 143.258 35.3828 142.828 35.3828 142.297L35.4062 140.492C35.4062 139.977 35.3828 139.469 35.3359 138.969C35.3047 138.453 35.2656 138.047 35.2188 137.75L33.7188 137.422V136.648L36.8594 135.781L37.2578 136.156L37.1406 137.398L37.2109 137.422C37.7578 136.828 38.2969 136.398 38.8281 136.133C39.3594 135.867 39.9375 135.734 40.5625 135.734C41.1406 135.734 41.6797 135.883 42.1797 136.18C42.6953 136.461 43.1094 136.898 43.4219 137.492C43.75 138.086 43.9141 138.844 43.9141 139.766V142.367C43.9141 142.93 43.9219 143.438 43.9375 143.891C43.9688 144.344 44.0078 144.648 44.0547 144.805L45.5078 145.156L45.4375 146H40.7266L40.6797 145.156L42.0391 144.805C42.0547 144.68 42.0703 144.523 42.0859 144.336C42.1016 144.148 42.1094 143.914 42.1094 143.633C42.125 143.336 42.1328 142.969 42.1328 142.531V140C42.1328 139.297 42.0078 138.742 41.7578 138.336C41.5234 137.914 41.2266 137.617 40.8672 137.445C40.5078 137.258 40.1406 137.164 39.7656 137.164C39.25 137.164 38.7656 137.297 38.3125 137.562C37.875 137.812 37.5 138.164 37.1875 138.617V142.133C37.1875 142.852 37.1953 143.438 37.2109 143.891C37.2422 144.328 37.2734 144.633 37.3047 144.805L38.7578 145.156L38.6875 146H33.8828ZM46.6797 146L46.6328 145.133L48.2031 144.805C48.2188 144.742 48.2266 144.633 48.2266 144.477C48.2422 144.32 48.2578 144.07 48.2734 143.727C48.2891 143.383 48.2969 142.906 48.2969 142.297V140.75C48.2969 140.109 48.2812 139.523 48.25 138.992C48.2188 138.461 48.1797 138.047 48.1328 137.75L46.5625 137.422V136.648L49.8906 135.781L50.2422 136.109C50.1953 136.594 50.1562 137.07 50.125 137.539C50.1094 138.008 50.1016 138.555 50.1016 139.18V142.133C50.1016 142.852 50.1094 143.445 50.125 143.914C50.1562 144.383 50.1875 144.68 50.2188 144.805L51.7891 145.133L51.7422 146H46.6797ZM49.2109 133.133C48.8203 133.133 48.4766 133 48.1797 132.734C47.8984 132.469 47.7578 132.141 47.7578 131.75C47.7578 131.359 47.8984 131.031 48.1797 130.766C48.4766 130.5 48.8203 130.367 49.2109 130.367C49.6172 130.367 49.9531 130.5 50.2188 130.766C50.4844 131.031 50.6172 131.359 50.6172 131.75C50.6172 132.141 50.4844 132.469 50.2188 132.734C49.9531 133 49.6172 133.133 49.2109 133.133ZM60.4141 144.547C60.1172 145.062 59.7109 145.469 59.1953 145.766C58.6797 146.047 58.1406 146.188 57.5781 146.188C56.625 146.188 55.8438 145.898 55.2344 145.32C54.625 144.742 54.3203 143.875 54.3203 142.719L54.3906 137.117H52.75V136.625L55.7734 133.883H56.2188L56.1719 136.578L56.1484 142.344C56.1484 143.156 56.3203 143.758 56.6641 144.148C57.0234 144.539 57.5234 144.734 58.1641 144.734C58.5234 144.734 58.8516 144.664 59.1484 144.523C59.4609 144.383 59.7422 144.195 59.9922 143.961L60.4141 144.547ZM55.3281 137.117V135.945H59.7109V137.117H55.3281ZM65.2422 146.094L61.1172 137.117L60.0156 136.766L60.0859 135.922H64.6328L64.6797 136.766L63.2266 137.117L66.4141 144.242L65.2422 146.094ZM71.2422 135.922L71.3125 136.766L70.2109 137.117L66.2266 145.484L64.3516 149.375C64.0078 150.094 63.6406 150.602 63.25 150.898C62.875 151.195 62.4375 151.344 61.9375 151.344C61.5469 151.344 61.2266 151.25 60.9766 151.062C60.7422 150.875 60.625 150.633 60.625 150.336C60.625 150.102 60.7188 149.875 60.9062 149.656C61.0938 149.453 61.3828 149.297 61.7734 149.188L63.9531 148.531L62.875 149.703L65.4766 144.688L65.7344 144.266L68.7812 137.117L67.3281 136.766L67.375 135.922H71.2422ZM71.1719 146L71.1016 144.664L72.3438 144.219L77.0781 133.109L79.3984 131.82L84.9766 144.219L86.2188 144.664L86.1484 146H78.9062L78.7891 144.664L80.3359 144.219L79.1875 141.523L78.9297 140.656L76.7031 135.641L77.5 136.156L75.8594 140.539L75.6484 141.242L74.6172 144.219L76.1641 144.664L76.0938 146H71.1719ZM74.9688 142.25V140.422C75.2969 140.438 75.625 140.461 75.9531 140.492C76.2969 140.523 76.7656 140.539 77.3594 140.539C77.9375 140.539 78.4062 140.523 78.7656 140.492C79.125 140.461 79.4609 140.438 79.7734 140.422V142.227C79.6484 142.227 79.3984 142.219 79.0234 142.203C78.6484 142.188 78.0938 142.18 77.3594 142.18C76.5938 142.18 76.0312 142.188 75.6719 142.203C75.3281 142.219 75.0938 142.234 74.9688 142.25ZM86.9219 146L86.8516 144.664L88.375 144.242C88.375 144.148 88.375 143.961 88.375 143.68C88.3906 143.383 88.3984 143.039 88.3984 142.648C88.4141 142.258 88.4219 141.875 88.4219 141.5C88.4375 141.109 88.4453 140.781 88.4453 140.516V137.703C88.4453 137.094 88.4375 136.523 88.4219 135.992C88.4062 135.445 88.3828 134.992 88.3516 134.633C88.3203 134.273 88.2891 134.07 88.2578 134.023L86.7344 133.578L86.8047 132.242H93.4375C95.4375 132.242 96.8984 132.531 97.8203 133.109C98.7422 133.688 99.2031 134.625 99.2031 135.922C99.2031 136.688 98.9531 137.375 98.4531 137.984C97.9688 138.578 97.2891 139.047 96.4141 139.391C95.5547 139.734 94.5625 139.906 93.4375 139.906H91.7266V138.359H92.7812C93.4531 138.359 94.0078 138.125 94.4453 137.656C94.8828 137.172 95.1016 136.555 95.1016 135.805C95.1016 135.133 94.9219 134.617 94.5625 134.258C94.2031 133.898 93.6797 133.719 92.9922 133.719H92.3828C92.3828 133.781 92.375 133.961 92.3594 134.258C92.3594 134.555 92.3516 134.914 92.3359 135.336C92.3359 135.742 92.3359 136.156 92.3359 136.578C92.3359 137 92.3359 137.359 92.3359 137.656V140.516C92.3359 140.766 92.3359 141.133 92.3359 141.617C92.3516 142.102 92.3594 142.594 92.3594 143.094C92.375 143.578 92.3828 143.961 92.3828 144.242L93.6484 144.664L93.5781 146H86.9219ZM99.8594 146.305C98.875 146.305 97.9922 146.156 97.2109 145.859C96.4297 145.562 95.7578 145.125 95.1953 144.547C94.6484 143.969 94.2031 143.258 93.8594 142.414L92.7109 139.531L95.8281 138.805L98.7812 142.789C99.0312 143.102 99.3047 143.398 99.6016 143.68C99.8984 143.945 100.219 144.188 100.562 144.406C100.906 144.609 101.273 144.773 101.664 144.898L101.641 146.141C101.328 146.203 101.023 146.242 100.727 146.258C100.445 146.289 100.156 146.305 99.8594 146.305ZM114.789 132.102L115.352 136.508L113.641 136.625L112.727 133.859C112.586 133.828 112.414 133.812 112.211 133.812C112.023 133.797 111.797 133.789 111.531 133.789H110.805C110.68 133.789 110.555 133.797 110.43 133.812C110.305 133.812 110.227 133.82 110.195 133.836C110.195 133.93 110.188 134.227 110.172 134.727C110.156 135.227 110.141 135.836 110.125 136.555C110.125 137.258 110.125 137.992 110.125 138.758V140.328C110.125 141.125 110.133 141.867 110.148 142.555C110.18 143.242 110.203 143.797 110.219 144.219L112.305 144.617L112.234 146H104.078L104.008 144.617L106.094 144.219C106.125 143.797 106.148 143.242 106.164 142.555C106.18 141.867 106.188 141.125 106.188 140.328V138.758C106.188 137.992 106.18 137.258 106.164 136.555C106.164 135.836 106.156 135.227 106.141 134.727C106.141 134.227 106.133 133.93 106.117 133.836C106.086 133.82 106.008 133.812 105.883 133.812C105.758 133.797 105.633 133.789 105.508 133.789H104.758C104.508 133.789 104.266 133.797 104.031 133.812C103.797 133.812 103.609 133.828 103.469 133.859L102.648 136.672L100.938 136.531L101.406 132.102C101.562 132.102 101.812 132.109 102.156 132.125C102.5 132.141 102.875 132.156 103.281 132.172C103.688 132.188 104.078 132.203 104.453 132.219C104.828 132.234 105.133 132.242 105.367 132.242H110.852C111.086 132.242 111.391 132.234 111.766 132.219C112.141 132.203 112.531 132.188 112.938 132.172C113.344 132.156 113.711 132.141 114.039 132.125C114.383 132.109 114.633 132.102 114.789 132.102Z" fill="#E81147"/>
</svg>
